<svg width="42" height="37" viewBox="0 0 42 37" fill="none" xmlns="http://www.w3.org/2000/svg">
<path d="M39.813 36.7612H21.6415C21.0855 36.7612 20.6685 36.5857 20.3905 36.2347C20.1128 35.8837 19.974 35.5042 19.974 35.0962C19.974 34.6882 20.1108 34.3099 20.3845 33.9612C20.6582 33.6126 21.0732 33.4382 21.6295 33.4382H39.813C40.2887 33.4382 40.6855 33.5962 41.0035 33.9122C41.3215 34.2279 41.4805 34.6217 41.4805 35.0937C41.4805 35.5751 41.3215 35.9732 41.0035 36.2882C40.6855 36.6036 40.2887 36.7612 39.813 36.7612ZM23.713 24.0047C23.3673 24.3447 22.964 24.5147 22.503 24.5147C22.0423 24.5147 21.642 24.3447 21.302 24.0047L15.8425 18.5447C15.5025 18.1994 15.3325 17.7962 15.3325 17.3352C15.3325 16.8742 15.5025 16.4739 15.8425 16.1342L31.2425 0.73423C31.4978 0.476894 31.7792 0.29023 32.0865 0.174232C32.3942 0.0582315 32.7168 0.000228882 33.0545 0.000228882C33.3925 0.000228882 33.7093 0.0582315 34.005 0.174232C34.301 0.29023 34.5777 0.476894 34.835 0.73423L39.113 5.01223C39.3703 5.2679 39.557 5.54106 39.673 5.83173C39.7887 6.1224 39.8465 6.43673 39.8465 6.77473C39.8465 7.1124 39.7887 7.43756 39.673 7.75023C39.557 8.06256 39.3703 8.3474 39.113 8.60473L23.713 24.0047ZM22.5075 20.5177L36.224 6.78973L33.0575 3.62323L19.3295 17.3397L22.5075 20.5177ZM17.0045 33.2897C15.9058 34.3887 14.6327 35.2421 13.185 35.8497C11.7373 36.4574 10.23 36.7612 8.663 36.7612H7.468C6.267 36.7612 5.119 36.5846 4.024 36.2312C2.929 35.8782 1.88667 35.3744 0.897 34.7197C0.597667 34.5321 0.373333 34.2821 0.224 33.9697C0.074667 33.6574 0 33.3347 0 33.0017C0 32.7047 0.066333 32.4061 0.199 32.1057C0.331667 31.8051 0.509833 31.5387 0.7335 31.3067L11.3695 20.7212C11.7108 20.3892 12.109 20.2232 12.564 20.2232C13.019 20.2232 13.4165 20.3892 13.7565 20.7212L17.9545 24.9067C18.4435 25.4004 18.8277 25.9644 19.107 26.5987C19.3863 27.2331 19.526 27.8996 19.526 28.5982C19.526 29.2969 19.3863 29.9719 19.107 30.6232C18.8277 31.2746 18.4435 31.8467 17.9545 32.3397L17.0045 33.2897ZM7.463 33.4382H8.6605C9.7915 33.4382 10.8772 33.2257 11.9175 32.8007C12.9578 32.3754 13.8737 31.7626 14.665 30.9622L15.761 29.8667C16.121 29.5037 16.276 29.0719 16.226 28.5712C16.176 28.0702 15.971 27.6357 15.611 27.2677L12.563 24.2197L3.8825 32.8742C4.46417 33.0662 5.05267 33.2082 5.648 33.3002C6.24367 33.3922 6.84867 33.4382 7.463 33.4382Z" fill="#0B8376"/>
</svg>
