<svg width="44" height="39" viewBox="0 0 44 39" fill="none" xmlns="http://www.w3.org/2000/svg">
<path d="M12.0618 20.2015L23.8682 21.4275L25.1777 18.78L21.2063 16.644L18.1923 16.468C17.7223 16.436 17.3411 16.2482 17.0487 15.9045C16.7567 15.5605 16.6274 15.1545 16.6608 14.6865C16.6928 14.2569 16.8729 13.9002 17.2013 13.6165C17.5299 13.3325 17.9102 13.2032 18.3423 13.2285L22.1223 13.5285L34.2333 19.8645C35.0503 20.2792 35.9093 20.4809 36.8103 20.4695C37.7113 20.4582 38.5331 20.1739 39.2758 19.6165L27.7898 8.68305H14.5053L10.8553 3.50705L3.38225 6.89304L8.01925 17.409C8.36992 18.252 8.91192 18.9129 9.64525 19.3915C10.3789 19.8705 11.1844 20.1405 12.0618 20.2015ZM11.6278 23.596C10.1161 23.4307 8.75625 22.9192 7.54825 22.0615C6.34059 21.2035 5.44142 20.0839 4.85075 18.7025L0.311751 8.27205C-0.0775818 7.41938 -0.102249 6.55638 0.237751 5.68304C0.577418 4.80971 1.18109 4.17355 2.04875 3.77454L9.47125 0.312546C10.2256 -0.0367892 10.9908 -0.0934524 11.7668 0.142548C12.5424 0.378212 13.1708 0.828044 13.6518 1.49205L16.2963 5.27655H27.9398C28.3588 5.27655 28.7744 5.35754 29.1868 5.51955C29.5991 5.68154 29.9584 5.91971 30.2648 6.23404L43.0203 18.571C43.3603 18.919 43.5283 19.329 43.5243 19.801C43.5202 20.273 43.3483 20.6754 43.0083 21.008L42.5173 21.4875C41.1692 22.7939 39.5984 23.5379 37.8048 23.7195C36.0108 23.9012 34.2899 23.5467 32.6423 22.656L28.2488 20.383L26.9388 22.945C26.5591 23.6154 26.0324 24.1209 25.3587 24.4615C24.6854 24.8019 23.9683 24.9349 23.2073 24.8605L11.6278 23.596ZM3.22475 38.204C2.76875 38.3197 2.35025 38.2657 1.96925 38.042C1.58792 37.818 1.32675 37.4799 1.18575 37.0275C1.03642 36.5682 1.07559 36.121 1.30325 35.686C1.53125 35.2507 1.88992 34.975 2.37925 34.859L11.2498 32.6895C13.8794 32.0202 16.4799 31.429 19.0513 30.916C21.6226 30.4034 24.2981 30.147 27.0777 30.147C29.3831 30.147 31.6056 30.5467 33.7453 31.346C35.8852 32.1454 37.8671 33.249 39.6908 34.657C40.0308 34.9557 40.2111 35.3265 40.2318 35.7695C40.2524 36.2125 40.1074 36.604 39.7967 36.944C39.4864 37.284 39.0969 37.4707 38.6283 37.504C38.1599 37.5374 37.7353 37.4047 37.3543 37.106C35.8859 35.9634 34.2934 35.0857 32.5768 34.473C30.8601 33.8604 29.0424 33.554 27.1238 33.554C24.3881 33.554 21.7593 33.8167 19.2373 34.342C16.7153 34.8674 14.1389 35.4547 11.5083 36.104L3.22475 38.204Z" fill="#0B8376"/>
</svg>
