<svg width="33" height="42" viewBox="0 0 33 42" fill="none" xmlns="http://www.w3.org/2000/svg">
<path d="M2.9455 41.6069C2.46483 41.6069 2.06067 41.4431 1.733 41.1154C1.40567 40.7881 1.242 40.3841 1.242 39.9034V24.9034C1.242 24.4228 1.40567 24.0188 1.733 23.6914C2.06067 23.3638 2.46483 23.1999 2.9455 23.1999H5.266V13.5869L0.9815 9.29043C0.327167 8.6381 0 7.84293 0 6.90493C0 5.96693 0.327167 5.17076 0.9815 4.51643L4.988 0.509933C5.321 0.169932 5.71517 -6.86646e-05 6.1705 -6.86646e-05C6.6255 -6.86646e-05 7.027 0.170765 7.375 0.512432C7.71467 0.854099 7.8845 1.26027 7.8845 1.73093C7.8845 2.2016 7.71467 2.60693 7.375 2.94693L3.3685 6.90343L7.653 11.1999C7.96767 11.5066 8.21817 11.8741 8.4045 12.3024C8.59117 12.7308 8.6845 13.1756 8.6845 13.6369V23.1999H11.005C11.486 23.1999 11.8902 23.3638 12.2175 23.6914C12.5448 24.0188 12.7085 24.4228 12.7085 24.9034V39.9034C12.7085 40.3841 12.5448 40.7881 12.2175 41.1154C11.8902 41.4431 11.486 41.6069 11.005 41.6069H2.9455ZM20.412 41.6069C19.931 41.6069 19.5268 41.4431 19.1995 41.1154C18.8722 40.7881 18.7085 40.3841 18.7085 39.9034V24.9034C18.7085 24.4228 18.8722 24.0188 19.1995 23.6914C19.5268 23.3638 19.931 23.1999 20.412 23.1999H22.7325V16.9089C20.9992 16.5103 19.5658 15.5888 18.4325 14.1444C17.2992 12.6998 16.7325 11.0426 16.7325 9.17293C16.7325 6.97093 17.4773 5.0916 18.967 3.53493C20.457 1.97826 22.2838 1.19993 24.4475 1.19993C26.6035 1.19993 28.4263 1.97876 29.916 3.53643C31.406 5.0941 32.151 6.96643 32.151 9.15343C32.151 11.0361 31.5843 12.6998 30.451 14.1444C29.3177 15.5888 27.8843 16.5103 26.151 16.9089V23.1999H28.4715C28.9522 23.1999 29.3563 23.3638 29.684 23.6914C30.0113 24.0188 30.175 24.4228 30.175 24.9034V39.9034C30.175 40.3841 30.0113 40.7881 29.684 41.1154C29.3563 41.4431 28.9522 41.6069 28.4715 41.6069H20.412ZM24.4475 13.6999C25.6585 13.6999 26.6753 13.2554 27.498 12.3664C28.321 11.4774 28.7325 10.4086 28.7325 9.15993C28.7325 7.91127 28.321 6.84026 27.498 5.94693C26.6753 5.0536 25.6585 4.60693 24.4475 4.60693C23.2288 4.60693 22.208 5.05143 21.385 5.94043C20.5623 6.82943 20.151 7.89827 20.151 9.14693C20.151 10.3956 20.5623 11.4666 21.385 12.3599C22.208 13.2533 23.2288 13.6999 24.4475 13.6999ZM4.6605 38.1999H9.302V26.6069H4.6605V38.1999ZM22.127 38.1999H26.7685V26.6069H22.127V38.1999Z" fill="#0B8376"/>
</svg>
