<svg width="37" height="37" viewBox="0 0 37 37" fill="none" xmlns="http://www.w3.org/2000/svg">
<path d="M28.089 7.62939e-06C30.3187 7.62939e-06 32.2245 0.791339 33.8065 2.37401C35.3882 3.95667 36.179 5.86434 36.179 8.09701C36.179 8.46267 36.154 8.95384 36.104 9.57051C36.054 10.1872 35.979 10.8995 35.879 11.7075L33.129 31.8575C32.9543 33.2402 32.3415 34.3145 31.2905 35.0805C30.2398 35.8462 29.1197 36.229 27.93 36.229C27.2163 36.229 26.5202 36.077 25.8415 35.773C25.1628 35.469 24.5863 34.9753 24.112 34.292L18.762 26.4935C18.6953 26.4172 18.5972 26.3457 18.4675 26.279C18.3382 26.2123 18.1948 26.179 18.0375 26.179C17.9842 26.179 17.74 26.3172 17.305 26.5935L12.105 34.1435C11.6307 34.8592 11.037 35.3857 10.324 35.723C9.61133 36.0603 8.88117 36.229 8.1335 36.229C6.94283 36.229 5.83117 35.8462 4.7985 35.0805C3.76617 34.3145 3.16667 33.2235 3 31.8075L0.3 11.7075C0.192 10.8995 0.115 10.1878 0.069 9.57251C0.023 8.95717 0 8.4665 0 8.10051C0 5.86517 0.789333 3.95634 2.368 2.37401C3.947 0.791339 5.84933 7.62939e-06 8.075 7.62939e-06C9.289 7.62939e-06 10.2607 0.15834 10.99 0.475006C11.7193 0.791675 12.4177 1.13734 13.085 1.51201C13.7427 1.87568 14.4415 2.2145 15.1815 2.5285C15.9212 2.84284 16.8878 3.00001 18.0815 3.00001C19.2748 3.00001 20.242 2.84284 20.983 2.5285C21.7243 2.2145 22.4243 1.87568 23.083 1.51201C23.7513 1.13734 24.4572 0.791675 25.2005 0.475006C25.9438 0.15834 26.9067 7.62939e-06 28.089 7.62939e-06ZM28.0805 3.41851C27.3832 3.41851 26.7702 3.52317 26.2415 3.73251C25.7128 3.94184 25.1685 4.21784 24.6085 4.5605C23.5178 5.17651 22.4943 5.64017 21.538 5.95151C20.5813 6.26284 19.4298 6.41851 18.0835 6.41851C16.7372 6.41851 15.594 6.26284 14.654 5.95151C13.7143 5.64017 12.6992 5.17651 11.6085 4.5605C11.0485 4.21784 10.4958 3.94184 9.9505 3.73251C9.40517 3.52317 8.78267 3.41851 8.083 3.41851C6.779 3.41851 5.6715 3.87184 4.7605 4.77851C3.84983 5.6855 3.3985 6.79117 3.4065 8.0955C3.4145 8.39417 3.43317 8.80367 3.4625 9.32401C3.49183 9.84467 3.5525 10.4358 3.6445 11.0975L6.3585 30.927C6.41917 31.445 6.63933 31.8402 7.019 32.1125C7.399 32.3852 7.79783 32.5215 8.2155 32.5215C8.48483 32.5215 8.74167 32.4525 8.986 32.3145C9.23033 32.1765 9.44683 31.9862 9.6355 31.7435L14.4705 24.654C14.8945 24.0397 15.4307 23.5725 16.079 23.2525C16.7277 22.9325 17.3962 22.7725 18.0845 22.7725C18.7728 22.7725 19.433 22.9342 20.065 23.2575C20.697 23.5805 21.2282 24.05 21.6585 24.666L26.5695 31.8695C26.7242 32.1202 26.9258 32.2998 27.1745 32.4085C27.4232 32.5172 27.669 32.5715 27.912 32.5715C28.3227 32.5715 28.7185 32.4272 29.0995 32.1385C29.4802 31.8498 29.7038 31.4793 29.7705 31.027L32.5215 11.1015C32.6142 10.4052 32.6772 9.79684 32.7105 9.2765C32.7438 8.75584 32.7605 8.36217 32.7605 8.0955C32.7605 6.78984 32.3073 5.68401 31.401 4.77801C30.495 3.87167 29.3882 3.41851 28.0805 3.41851Z" fill="#0B8376"/>
</svg>
